<svg id="OBJECTS" xmlns="http://www.w3.org/2000/svg" viewBox="0 0 778.79 170.99"><defs><linearGradient id="Nepojmenovaný_přechod_14" x1="1161.99" y1="232.61" x2="1349.73" y2="232.61" gradientTransform="matrix(-1 0 0 1 1409.81 0)" gradientUnits="userSpaceOnUse"><stop offset="0" stop-color="#44eaca"/><stop offset="1" stop-color="#1d64f9"/></linearGradient><style>.cls-3{fill:#fff}</style></defs><path d="M65.46 180.17l54.77-31.62a10.75 10.75 0 0110.75 0l54.77 31.62 40.82 23.57a6 6 0 11-5.95 10.31l-29.5-17v13.84l53.51 30.9a6 6 0 11-5.95 10.31l-47.56-27.46v13.75l26.26 15.16a6 6 0 11-5.95 10.31l-20.31-11.72v.62a10.78 10.78 0 01-5.37 9.31l-.62.35 50.46 29.14a6 6 0 11-6 10.31l-56.42-32.57-11.9 6.87 24.94 14.4a6 6 0 11-6 10.31L149.41 283l-11.9 6.88 29.5 17a6 6 0 11-6 10.31l-56.8-32.8L65.46 262a10.75 10.75 0 01-5.38-9.31v-63.21a10.75 10.75 0 015.38-9.31z" transform="translate(-60.08 -147.11)" fill="url(#Nepojmenovaný_přechod_14)"/><path d="M124.65 272.53a1.89 1.89 0 01-1-1.64v-49.78a1.92 1.92 0 011-1.65l43.12-24.89a1.9 1.9 0 012.84 1.64V246a1.89 1.89 0 01-1 1.64l-43.11 24.89a1.89 1.89 0 01-1 .26 1.91 1.91 0 01-.85-.26zm42.17-73L127.5 222.2v45.41l39.32-22.71z" transform="translate(-60.08 -147.11)" fill="#023859"/><path class="cls-3" d="M124.65 272.53l-43.11-24.89a1.89 1.89 0 01-1-1.64v-49.79a1.89 1.89 0 011-1.64l43.11-24.89a1.9 1.9 0 011.9 0l43.11 24.89a1.89 1.89 0 011 1.64V246a1.9 1.9 0 01-1 1.64l-43.11 24.89a1.89 1.89 0 01-1 .26 1.91 1.91 0 01-.9-.26zm42.17-75.22l-41.22-23.8-41.22 23.8v47.59l41.22 23.8 41.22-23.8z" transform="translate(-60.08 -147.11)"/><path class="cls-3" d="M124.65 272.53l-43.11-24.89a1.89 1.89 0 01-1-1.64v-49.79a1.9 1.9 0 012.84-1.64l43.12 24.89a1.9 1.9 0 011 1.65v49.78a1.91 1.91 0 01-1.9 1.9 1.91 1.91 0 01-.95-.26zm-40.27-73v45.4l39.32 22.71V222.2z" transform="translate(-60.08 -147.11)"/><path class="cls-3" d="M124.65 222.75l-43.11-24.9a1.89 1.89 0 010-3.28l43.11-24.89a1.9 1.9 0 011.9 0l43.11 24.89a1.89 1.89 0 010 3.28l-43.11 24.9a1.88 1.88 0 01-1 .25 1.9 1.9 0 01-.9-.25zm.95-49.24l-39.32 22.7 39.32 22.7 39.32-22.7z" transform="translate(-60.08 -147.11)"/><path class="cls-3" d="M124.65 222.75l-22-12.71a1.89 1.89 0 010-3.28l22-12.71a1.9 1.9 0 011.9 0l22 12.71a1.89 1.89 0 010 3.28l-22 12.71a1.88 1.88 0 01-1 .25 1.9 1.9 0 01-.9-.25zm.95-24.86l-18.21 10.51 18.21 10.51 18.21-10.51z" transform="translate(-60.08 -147.11)"/><path class="cls-3" d="M108.64 49.1l8.49 23.86-43.11 24.9L65.52 74l43.12-24.9z"/><path class="cls-3" d="M133.44 246.75a1.94 1.94 0 01-1.13-1.15l-8.5-23.86a1.91 1.91 0 01.84-2.28l43.12-24.89a1.91 1.91 0 011.6-.14 1.89 1.89 0 011.13 1.15l8.5 23.86a1.89 1.89 0 01-.84 2.28l-43.11 24.89a1.88 1.88 0 01-1 .25 2.17 2.17 0 01-.61-.11zM167.69 199l-39.77 23 7.2 20.22 39.78-23z" transform="translate(-60.08 -147.11)"/><path class="cls-3" d="M22.41 49.1l-8.5 23.86 43.11 24.9L65.52 74 22.41 49.1z"/><path class="cls-3" d="M116.15 246.61L73 221.72a1.9 1.9 0 01-.84-2.28l8.5-23.86a1.89 1.89 0 012.73-1l43.12 24.89a1.9 1.9 0 01.84 2.28l-8.5 23.86a1.92 1.92 0 01-1.13 1.15 1.87 1.87 0 01-.66.11 1.9 1.9 0 01-.91-.26zM83.51 199l-7.21 20.22 39.78 23 7.2-20.23z" transform="translate(-60.08 -147.11)"/><path d="M234.49 222a5.91 5.91 0 118.08-2.17 5.92 5.92 0 01-8.08 2.17zm-10.12 49.26a5.91 5.91 0 118.08-2.17 5.91 5.91 0 01-8.08 2.17zm-23.19 27.94a5.91 5.91 0 11-8.08 2.16 5.91 5.91 0 018.08-2.16z" transform="translate(-60.08 -147.11)" fill="#44eaca"/><path d="M296.71 214.73v10.14H289v38.72h-12.4v-38.72h-5.29v-10.14h5.29V212q0-8.82 4.68-12.88t14.72-4.05v10.4q-3.87 0-5.46 1.5T289 212v2.73zm20.99 7.59Q322.91 214 333 214a21.63 21.63 0 0116.58 7q6.53 7 6.53 18.08t-6.53 18.12a21.45 21.45 0 01-16.44 7.05q-9.93 0-15.39-8.9v8.2h-12.49v-65.22h12.44zm21.91 27.33q3.84-3.87 3.84-10.58t-3.84-10.49a12.63 12.63 0 00-18.08 0q-3.82 3.84-3.83 10.54t3.83 10.54a12.53 12.53 0 0018.08 0z" transform="translate(-60.08 -147.11)"/><path d="M353.12 104.36l-12.11 12.12h12.11v-12.12z"/><path d="M413.2 214.73h-12.34v7.59q-5.3-8.3-15.35-8.29a21.65 21.65 0 00-16.58 7q-6.53 7-6.52 18t6.59 18.16a21.44 21.44 0 0016.44 7.1q9.88 0 15.44-8.9v8.2h.23l12.11-12.12zM397 249.7a12.53 12.53 0 01-18.08 0q-3.92-3.92-3.92-10.63t3.84-10.49a12.68 12.68 0 0118.12 0q3.87 3.84 3.88 10.54T397 249.7zm68.54-42.33a17.91 17.91 0 00-5.06-3.25l-7.87 7.88a8.09 8.09 0 013.63 2 10 10 0 010 13.14q-2.48 2.43-7.15 2.43h-10.22v-3.82l-12.44 12.44v25.42h12.44v-24.54h10.22a29.88 29.88 0 0010.63-1.72 15.91 15.91 0 006.92-4.63 19.25 19.25 0 004.68-12.78 16.6 16.6 0 00-5.78-12.57zm-26.67 11.06v-6.87h10.22a13.57 13.57 0 013.52.43l7.87-7.87a25.7 25.7 0 00-7.93-1.94c-1.11-.1-2.26-.15-3.46-.15h-22.66v36.14l12.44-12.44zm54.23 20.64v24.52h-12.44V202h22.67q10.67 0 16.45 5.34a17.26 17.26 0 015.77 13.18A18.54 18.54 0 01522 231.4q-3.53 5-11.11 6.88l15.7 25.31h-14.71l-14.72-24.52zm0-27.51v18h10.23q4.67 0 7.14-2.43a10 10 0 000-13.14q-2.48-2.41-7.14-2.42zm80.33-9.7v9.52h-23.1v16.14h20.46V237h-20.46v17h23.1v9.53H537.9v-61.67zm51.81 5.51Q619.46 202 608.8 202h-22.67v61.55l12.44-12.43v-12.05h12.12L631 218.74a16.65 16.65 0 00-5.76-11.37zm-9.3 19.75q-2.48 2.43-7.14 2.43h-10.23v-18h10.23q4.66 0 7.14 2.42a10 10 0 010 13.14z" transform="translate(-60.08 -147.11)"/><path d="M526.05 116.48h12.44v-12.44l-12.44 12.43v.01z"/><path d="M610.69 239a28.05 28.05 0 008.73-1.67 16 16 0 006.93-4.63 19.29 19.29 0 004.65-12.76v-1.2zm32.81 18.19q-6.57-7.09-6.57-18.12t6.52-18A21.65 21.65 0 01660 214q10.05 0 15.35 8.29v-7.59h12.34v48.86h-12.31v-8.2q-5.57 8.91-15.44 8.9a21.44 21.44 0 01-16.44-7.07zm28-7.49q3.87-3.84 3.88-10.54t-3.88-10.54a12.69 12.69 0 00-18.13 0q-3.82 3.79-3.83 10.49t3.88 10.58a12.53 12.53 0 0018.08 0zm41.88-34.97v8.65q4.95-9.36 14.29-9.35v12.7h-3.09q-5.55 0-8.37 2.77t-2.83 9.57v24.52H701v-48.86zm43.74 49.56q-10.67 0-17.37-6.92t-6.7-18.3q0-11.37 6.75-18.21t17.46-6.86q10.71 0 17.59 6.66t6.88 17.76a30.89 30.89 0 01-.35 4.77h-35.63a11.58 11.58 0 003.53 7.67 11 11 0 007.84 2.91 10.27 10.27 0 009.53-5.29h13.4a21.42 21.42 0 01-8.2 11.37 24.42 24.42 0 01-14.73 4.44zm8.16-36.86a11.65 11.65 0 00-8-2.91 11 11 0 00-7.8 2.91 12.31 12.31 0 00-3.75 7.76h23.1a10.61 10.61 0 00-3.55-7.76zm29.37 29.76q-6.57-7.09-6.57-18.12t6.52-18a21.65 21.65 0 0116.58-7q10.05 0 15.35 8.29v-24h12.34v65.26h-12.34v-8.2q-5.56 8.91-15.44 8.9a21.44 21.44 0 01-16.44-7.13zm28-7.49q3.87-3.84 3.88-10.54t-3.88-10.54a12.69 12.69 0 00-18.13 0q-3.82 3.79-3.83 10.49t3.88 10.58a12.53 12.53 0 0018.08 0z" transform="translate(-60.08 -147.11)"/></svg>